<svg id="Layer_1" data-name="Layer 1" xmlns="http://www.w3.org/2000/svg" viewBox="0 0 3167.46 2479.28"><defs><style>.cls-1{fill:#27b8bc}.cls-2{fill:#d3ebeb}</style></defs><path class="cls-1" d="M1948 0c1.43 2.57 4.07 1.8 6.24 2.17 70.89 11.83 126.56 64.17 141.95 133.38a173.1 173.1 0 01-114.8 202c-14.07 4.66-14.07 4.66-14.07 19.64v339.86c0 14.44-1.22 12.64 13 12.65q119.47.07 238.93 0h2c11.69-.07 10.79 1 10.79-10.77V314.09c0-4.66-.18-9.4.6-13.95 3.19-18.91 18.46-32.2 38.15-33.55 2.65-.19 5.33-.07 8-.07h352.9a71.15 71.15 0 0115.89 1.34c19.73 4.45 32.12 22.13 30.33 43.28-1.59 18.71-18.27 34.34-37.63 34.74-15.32.31-30.65.09-46 .09H2320.4c-8.58.12-8.68.12-8.69 8.87q-.06 63.47 0 126.94v216.91c0 12-.81 10.91 10.61 10.92 30.66 0 61.34.71 92-.21 21.77-.66 42.18 17.38 42.09 42.17-.52 144.94-.38 289.88-.39 434.82 0 15.37-2.2 13.56 14 13.57q171.45.07 342.9 0h4c8.53-.09 8.62-.06 11.35-8.88 6.27-20.23 15.24-39.11 28.43-55.76 34.76-43.88 79.81-67.1 136.17-68.29 80.24-1.69 157.69 56.68 172.41 145.48 15.16 91.53-47.35 180.15-138.89 197.1-86.79 16.07-170.29-34.14-197.22-118.51-4.27-13.35-1.16-11.69-16.23-11.7q-172.44-.06-344.9 0c-13.26 0-12-1.28-12 11.54v245.9c.24 7.24.25 7.39 7.22 7.51 9 .15 18 0 27 0h118c12.72 0 24.49 2.16 33.86 11.79a39.78 39.78 0 0111.72 26.8c.17 3.66.05 7.33.05 11v331.86a50.91 50.91 0 01-.05 7c-.75 5.14 2 7.26 6.44 8.23a49.77 49.77 0 015.73 1.74c66.89 23.55 108.14 70.12 118.95 140 15.48 100-57.84 185.71-150 196.47-94.47 11-179.78-54.83-192.5-148.74-11.1-82 38.65-161 117.78-187.17 14.22-4.69 14.22-4.69 14.22-19.48v-285.79c0-2.67-.16-5.34 0-8 .31-4.58-1.34-6.68-6.27-6.49-8 .3-16 .08-24 .08h-80c-8.08 0-8.16.14-8.15 8.39 0 31 .2 62 .16 93 0 26.68-16 43-42.72 43.48-15.66.28-31.32.06-47 .06h-386.95c-13.37 0-12.32-1-12.32 12.48v344.86c0 2.33.07 4.66 0 7-.09 3.52 1.55 5.43 5 6.41a145.37 145.37 0 0115.16 5c64.89 26.38 103.79 74.21 111.76 143.67 11 96.32-57.47 174.76-142.44 188.86-95 15.78-183.36-46.58-199.8-141.18-14.78-85 35.46-165.48 114.31-192.81 5.29-1.83 12.26-1.62 15.45-6.07 3.42-4.78 1.23-11.61 1.24-17.53q.11-169.43 0-338.86c0-12.45 1.33-12-11.75-12h-242.92c-10.85 0-10.89 0-10.89 10.88v388.84c0 5.3.33 10.62-1.25 15.86a40 40 0 01-35.82 28.81c-3 .22-6 .12-9 .12h-353.89c-4.65 0-9.29.13-13.92-.9-19.77-4.41-33.28-21.75-32-41.28 1.34-20.11 17.27-35.85 37.78-37.24 3.32-.22 6.66-.09 10-.09h306.91c12.88 0 12 1.25 12-11.69v-208.91c0-1.67-.1-3.34 0-5 .3-4.46-1.22-7-6.2-6.59-2.65.22-5.33 0-8 0H354.28c-12.32 0-12.06.1-16.19 11.86-23.49 66.83-70 107.78-139.86 119.29-87.47 14.41-172.64-43.81-193.38-130.08-22.79-94.8 37-189.78 132.25-210.16 85.52-18.29 171.71 31 199.82 114.29 5.19 15.35 5.19 15.35 21.73 15.35h1169.66c16.92 0 14.63 2 14.8-14.92q.15-15 0-30c-.09-8.06-.2-8.21-8.55-8.23-29.33-.08-58.65 0-88-.06a99.35 99.35 0 01-12-.53c-20.81-2.57-35.49-17.88-35.9-38.8-.51-26-.06-52 0-78 0-4.33.29-8.65.29-13v-335.86-352.85q-.08-97.44-.5-194.89c0-8.48 1.2-16.59 5.39-24 7.44-13.28 18.76-20.36 34-20.9 4-.15 8-.05 12-.05h424.87c15 0 13 1.7 13.06-13.49q.08-170.94 0-341.86a39.87 39.87 0 01.05-6c.78-5.12-2-7.05-6.39-8.33-6.06-1.77-12.1-3.74-18-6.07-69.4-27.6-114.48-96.77-108.82-173.15 5.94-80.3 64.53-144 144.19-158.4 2.43-.44 5.47.6 7.11-2.35zm-21.1 1687.26h435.87c15.07 0 13.46 2 13.46-13.09V805.52c0-16.49 2.14-14.5-14.11-14.5q-434.86-.06-869.75 0h-5c-8.85.14-8.94.14-9 8.72q-.15 26.49-.12 53 0 410.83.12 821.66c0 14.58-1.66 12.91 12.64 12.92l435.92-.06zm1160.89-446.58c1.48-45.17-34.55-94.06-93.18-94.51-51.89-.39-93.86 40.73-94.13 93.77-.25 51.49 42.09 93.42 93.39 93.51 51.76.09 93.75-41.38 93.95-92.77zM266.57 1861.93c.13-52.15-41.66-94.29-93.54-94.33-51.17 0-93.9 41.92-93.78 93.26.12 54.93 44.05 94.19 93.7 94.24 51.51.05 93.5-41.77 93.62-93.17zm2346.61 339.34c52.23.19 94.39-41.43 94.52-93.26.13-47.43-37-94-94-93.88-55.27.12-93.22 44.62-93.54 93.39-.35 51.38 41.69 93.57 93.02 93.75zm-592.36 105.46c.14-51.87-41.11-93.6-92.67-93.77-52.42-.17-94.19 41.12-94.29 93.21-.1 51.93 40.86 93.32 92.72 93.69 52.42.38 94.11-40.8 94.24-93.13zm-93.71-2040.2c52.11.07 93-40.94 93.74-92.85.71-51.21-42.25-93.66-92.74-94.1-51.22-.44-94.73 42.56-94.29 93.6.44 51.89 41.41 93.28 93.29 93.35z"/><path class="cls-1" d="M2889 133.85c95.36.11 172.68 77.63 172.59 173-.09 95.66-77.91 173.17-174 172.72-98.48-.46-172.55-82.06-172.1-173.64.51-94.49 78.73-173.15 173.51-172.08zm-93.87 172.54a92.94 92.94 0 0092.88 93.72c52 .17 93.31-41 94.06-92.66.75-51.87-42.86-94.77-93.5-94.27-51.94.52-93.28 41.29-93.4 93.21zM694.76 2345.88c-91.94.56-171.5-72.16-173.72-169.11a172.23 172.23 0 01170.11-176.66c101.6-1.54 173.88 80.67 175.77 169 1.99 93.51-73.08 176.2-172.16 176.77zm-94.4-173.24c-.09 52 41.93 94.25 93.76 94.19 51.07-.06 93.55-42.44 93.72-93.5.18-51.63-42.3-94.13-94-94.08a93.75 93.75 0 00-93.48 93.39zM1058.4 2173.3a39.47 39.47 0 01-39.3 39.57c-21.48 0-39.53-17.82-39.82-39.37-.28-21.75 18.28-40.28 40.12-40.06a39.48 39.48 0 0139 39.86z"/><path class="cls-2" d="M2048.06 1240.59v-193.8c0-2.66.07-5.33 0-8 0-3.85 2-5.33 5.63-5.24h148.91c1.67 0 3.34.11 5 0 4.71-.32 6.51 1.85 6.46 6.5-.14 14.32-.11 28.64 0 43 .06 8.36.18 8.46 8.28 8.57 8.66.12 17.32-.08 26 .07 7.22.12 7.59.35 7.61 7.2.1 35.29 0 70.59.12 105.89 0 5.37-2.34 6.89-7.25 6.78-9-.21-18-.16-27 0-7.38.12-7.67.29-7.74 7.09-.16 14.65.08 29.31-.12 44-.06 5.13 1.86 7.14 7 7 9.32-.24 18.65.11 28-.12 5.05-.12 7.11 1.7 7.09 6.92-.13 34.63 0 69.27-.11 103.9 0 6.84-.4 7.07-7.62 7.19-8.65.15-17.32-.1-26 .1-7 .16-8.15 1.21-8.25 8.21-.18 13.65 0 27.31-.06 41 0 10.61-.06 10.68-10.2 10.68h-145.87c-9.78 0-9.86-.09-9.86-10q-.08-98.53-.02-196.94zm125.85-89c0-17 .09-33.95 0-50.93-.06-7.78-1.08-8.84-8.48-9-9-.19-18 .09-27-.09-4.67-.09-6.61 1.79-6.49 6.48.19 7.32 0 14.65 0 22 0 27.62-.05 55.25 0 82.87 0 8.32.17 8.4 8.31 8.52q12 .18 24 0c8.68-.13 9.55-1 9.6-9.91.15-16.66.06-33.3.06-49.94zM2132 1327.83c0 17-.06 33.9 0 50.86.05 8.61.16 8.67 9.06 8.76 8.31.08 16.63.12 24.93 0 7.66-.13 7.82-.24 7.89-7.93.12-14.3 0-28.59 0-42.89v-57.84c0-9.15-.13-9.19-9.56-9.25-8.31-.06-16.63-.14-24.94 0-7 .14-7.31.38-7.37 7.41-.12 16.97-.01 33.92-.01 50.88zM1816.05 1269.32v-163.85c0-2.67.11-5.33 0-8-.19-4.29 1.88-5.94 6-5.89 8.66.11 17.32.12 26 0 7.78-.12 8-.23 8-7.83.13-13.65 0-27.3.06-41 0-9 .13-9.19 8.66-9.21q54.45-.09 108.91 0c8.07 0 8.18.21 8.24 8.6.1 14-.07 28 .07 42 .08 7 .4 7.29 7.41 7.42q13 .24 26 0c4.51-.09 7 1.45 6.67 6.29-.15 2.32 0 4.66 0 7v333.71c-.17 8.7-.17 8.81-9 8.84q-31.47.1-63 0c-9.95 0-10-.08-10-9.81q-.06-48 0-95.92c0-2.33-.07-4.66 0-7 .06-3.86-2-5.25-5.62-5.23q-15.49.08-31 0c-3.83 0-5.31 2-5.27 5.59.05 5 0 10 0 15v84.92c0 2.66 0 5.33-.11 8s-1.56 4.24-4.34 4.35c-1.33.06-2.67.1-4 .1-21.65 0-43.3.06-65 0-8.49 0-8.61-.17-8.62-9.22q-.11-84.44-.06-168.86zm82-87.79v75.87c0 2.33 0 4.66.05 7 0 3.16 1.36 5 4.74 5h31.95c3.88 0 5.25-2.1 5.16-5.67-.06-2.33 0-4.66 0-7v-152.75c0-2-.12-4 0-6 .33-4.68-1.77-6.6-6.45-6.48-7 .19-14 0-21 0-14.49 0-14.5 0-14.5 14q.09 38.09.1 76.03zM1582.15 1240.14V1048.3c0-2.33-.07-4.67 0-7 .25-7.49.28-7.68 8.13-7.72q34-.13 68 0c7.56 0 7.71.24 7.78 8.05.13 12.66 0 25.32 0 38v295.76c0 12.72-.69 12.11 11.8 12.1h98.94c2.33 0 4.67.14 7 0 4.86-.31 6.34 2.14 6.28 6.66-.15 11.66 0 23.32 0 35 0 4-.16 8 0 12 .23 4.78-2 6.67-6.58 6.34-1.66-.12-3.33 0-5 0h-184.9c-1.67 0-3.34-.12-5 0-4.67.33-6.77-1.75-6.47-6.44.16-2.32 0-4.66 0-7z"/></svg>