<svg data-name="Layer 1" xmlns="http://www.w3.org/2000/svg" viewBox="0 0 132.2 155.69"><path d="M126.23 59.36c-1.53.28-3.74-.11-2.53 2.75a2.88 2.88 0 010 1.92c-2.08 5.45-1.16 10.65 1.15 15.77.07.15.2.32.18.46-.24 1.54 2.17 3 .23 4.52-1.11.85-4.37-1.36-4.84-3.32-.41-1.67.25-4.41-1.89-4.44-1.79 0-.88 2.84-1.63 4.27-2.35 4.5-3.71 9.41-5.67 14.08-.55 1.31-1.42 2.5-2.67.38a3 3 0 00-4.68-.93c-1.84 2-3.61 1-4.8.21-3.5-2.4-7.57-3.19-11.36-4.75-1.45-.59-1.89 0-1.75 1.23.29 2.58-1.76 5-.18 7.77.72 1.28-1.33 2.94-.6 4.64a1.85 1.85 0 01-.57 1.83c-2.07 2.89-1.58 5.91-.34 8.89 2.78 6.69 5.66 13.35 8.49 20 .51 1.2.88 2.42 2.29 3.07s2.18 2.09 4.32 1.46c1.43-.42 3.39.57 5 1.24 2 .83 2.45 3.67 1 5.47-4.52 5.62-10 9.19-17.62 7.76a1.78 1.78 0 00-1 0c-1.89.82-3.87 1.31-5.69.14s-1.73-3.49-2.64-5.22c-1-2-1.66-4.24-3.46-5.79a4.06 4.06 0 01-.71-2.81c1.38-1.48.85-3 .18-4.59a78.5 78.5 0 01-3.68-10.8 29.78 29.78 0 00-2-4.56 3.85 3.85 0 00-3.5-2.36c-1.68.15-1.84 2-1.88 3.52l-1.37.45c-1.86.9-1.68 2.42-1.25 4-1.63.92-3.93 1.44-2.54 4.19.16.93-.08 1.92-1.08 1.78-2.69-.38-3.3 1.55-4.25 3.32-2.27 4.19-4.47 8.45-7 12.46-1.36 2.14.49 5.23-1.52 6.4-1.6.92-3.6-2-5.93-1.34-.62.19-1.5.05-1.87.44-5.37 5.67-11 1-16.5.44a.91.91 0 01-.78-1.08c.75-2.82-1.18-4.6-2.4-6.73-1.37-2.38-.12-4.45 2.89-4.86a42 42 0 018.26-.51c3.31.2 3.21-1.29 2.95-3.5 2.36-3.06 1.74-7.09 3.35-10.39a4.27 4.27 0 003.77-3.73c1-2 4.23-2.17 4.25-5a2.84 2.84 0 002.12-1.94c3.15-1.86 4.23-4.65 3.63-8.18A17.08 17.08 0 0050 104.6c.37-.85.7-2-.22-2.74-.72-.54-1.55.14-2.25.52-2.3 1.27-5.1 2-7 .42a13 13 0 00-9.33-3.53c-1 0-2-.92-3.06-1.43 0-1.86-2.05-2.69-2.17-4.48a4.59 4.59 0 00-.07-1.49c-1.38-3.5.07-6.21 2-9.11s4-3 6.79-2.26a2 2 0 001.45-.09c3-2.13 5.53-.67 7.46 1.46 1.44 1.59 2.31 1.46 3.52.14a53 53 0 0112.7-10c.57-.32 1.46-.85 1.46-1.28 0-3.56 2.42-3 4.72-3.15 4.14-.23 6-2.82 4.69-6.76A40.08 40.08 0 0169.2 42.2c.74-5.21 2.12-10.35 5.3-14.76 2.62-.54 4.23-2.54 6.08-4.2a50.83 50.83 0 019.34 1.36c4.94 1.29 6.22 3 6.34 7.93.08 3.21-.11 6.31 1.45 9.59s.52 7.63-1.18 10.91c-2.21 4.28-4.81 8.55-9.72 10.57a13.68 13.68 0 00-2.78 2c-3 2.26-2.17 1.62 0 4.28 5.06 6.21 13.61 5.69 19 10.86 1.09 1 2.07-.08 2-1-.12-5.08 1.77-10 1.38-15.08a72.53 72.53 0 01.29-8.32l.37-1c1.17-1.1 2-2.5 3.22-3.61 2.23-2 1.84-4-1.09-5-1.59-.53-2.11-1.18-2.2-2.69-.12-1.95.47-4-.68-5.84-.37-.61-.1-1.63.5-1.66 3.36-.19 2.32-2.33 2.07-4.22a7 7 0 01.23-2c.38-2.24 1.6-2.74 3.31-1.21A11.07 11.07 0 01116 41.18c-2.14 7.54 1.75 14 9.45 15.71.68.15 1.28.29 1.6 1 .18.7.08 1.32-.82 1.47zm-14-2.9c-.85.2-1 .85-1.07 1.6-1.24.3-2.44 1-1.92 2.35 1.57 4.15 3.44 8.15 7.56 10.52.67.38 1.15.43 1.68-.19 2.39-2.8 2.25-9-.31-12.38a3.05 3.05 0 00-2.47-1.79 2 2 0 00-2.45-2.15c-1.38.13-1.11 1.23-1.11 2.14zm-51.91 56.22c.88-2.31 3.6-1.51 5-3 1.58.61 3.42-1.28 4.88.5-1.71 1.78-3.17 3.45.24 5.09 1.19.57 1.32 2.16 2 3.23 1 1.61 1.43 4.27 4.34 3.81 2.12 3 1.78 6.73 2.8 10-2.17.89-1.53 2.55-.88 4a18.39 18.39 0 002.2 3.07c.07.84-1.11 1.21-1.06 1.39.87 3.34 1.46 6.87 3 9.88.92 1.78 8.71-.79 9.31-2.92a3.1 3.1 0 00-.18-1.94c-1.79-4.09-3.52-8.18-3.11-12.81 0-.27-.26-.6-.45-.87-.33-.49-.64-.35-1.13-.09-.26.14.07 2.56-.78.4-.71-1.81-1.31-3.67-2.17-5.44-1.44-3-3.23-5.86-4.07-9-1.29-4.83-3.34-8-9-6.77v-.36c.14-.55 0-1.63.51-1.54 3.21.5 4.5.15 5.3-2.41a9.46 9.46 0 012-3.21c0-.71.27-1.49-.5-2l-.54-1c-.25-1.51 1.34-2.59 1-4.14C82.08 91 81 84.5 82.78 78.64c.32-1.06-.64-1.53-1.55-2.12C79 75 77.88 78 76 77.67l-2.75-.12c-.95-1.45-2.11-2.68-4-2.11-1.71.5-3.1 1.08-2-1.69.45-1.1 0-1.92-1.28-2.08s-1.53.74-1.6 1.83a10 10 0 01-.58 3.39 50.58 50.58 0 00-4.54 19.38 5.16 5.16 0 00-.88 4.3 4.68 4.68 0 01-1.75 2.79 3.76 3.76 0 00-1 4.77c-3.45.35-3.64 2.84-3.58 5.49-3.66 1.35-4 5.07-5.57 7.88-2.16 0-3.35.82-3 3.15-.48.1-1.12 0-1.41.32-3.83 3.83-5.57 8.87-7.72 13.64a3.47 3.47 0 00.16 2.39c.69 1.71.77 2.86-1.09 4.13a3.08 3.08 0 00-.47 4.77c2 2 8.14.64 8.94-2 1.07-3.57 3.58-6.67 3.29-10.74-.11-1.57.93-3.12 1.85-4.52 1.33-2 2.6-4.06 3.89-6.09.6-1.78 2.85-1.86 3.6-3.49 3.66-2.48 6.49-5.43 5.81-10.38zM73.06 54.1c.4 2.07.76 4.15 1.2 6.21a2.53 2.53 0 003.26 2.14c2 2 3.71 1.3 5.55-.34 4.35-3.85 5.61-9.45 8.23-14.27.08-.14 0-.34 0-.5a41.24 41.24 0 001-8.86c.05-2.69.34-5.41-3-6.56-.33-.11-.47-.75-.7-1.15a13.33 13.33 0 011.4-.28h1.49c1.36 0 1.26-.74.59-1.5-2.41-2.68-8.05-2.5-10.74.31A27.89 27.89 0 0075 35.49c-.8 1.69-.52 3.55-1 5.27-.3.1-.84.15-.87.3-.81 4.34-1.5 8.69-.07 13.04zM49.17 95.61c5.49-2.35 7.46-5.61 7.36-12.11 0-.84 0-1.7-.85-2.12a2 2 0 00-2.26.6C51.24 84.24 48 85 46 87.52a6 6 0 01-2.82 2c-3.68 1.23-3.66 1.28-3.62 5.41a3.09 3.09 0 003.26 4.21c2.09-.55 5.05.78 6.38-2 .17-.46-.02-1.04-.03-1.53zm59-3.26c1.69-.41 2.08-2 2.4-3.38a89 89 0 013.24-9.83c.55-1.47 2.5-3 1-4.44-1.34-1.23-2.17-3-3.8-3.84-1-.54-2.67-.73-2.57 1 .21 3.38-1.14 6.5-1.15 9.82 0 2.58-1.11 3.54-3.26 2.57-4.68-2.1-9.77-3.16-14.16-5.93-.74-.47-1.46-2-2.35-1.08a3.45 3.45 0 00-.81 4.12 20.47 20.47 0 002.69 2.92c4.9 5.34 12.2 5.2 18.23 8a2.7 2.7 0 00.54.07zm-78.82-3.18c-.1 3.4 1.25 5 5.46 4.88 2.28 0 2.26-2.75 2.44-4.51.29-2.66-1.17-3.86-4.24-3.94s-3.56.26-3.66 3.57zm68.18 52.31c-3.11-.08-3.77.66-3.24 3.1.66 3 1.64 3.48 4.63 2.11a5.18 5.18 0 001.35-.6c.8-.72 2.65-.15 2.56-1.84s-1.76-1.86-2.85-2.44a6.4 6.4 0 00-2.45-.33zm-71.3 1.91c-.94.05-1.93.06-2.92.16a1.7 1.7 0 00-1.54 1.07c-.34 1 .78 1.25 1.22 1.85 1.33 1.81 2.68-.12 4 0 .84 0 2.29.13 1.93-1.42-.25-1.28-.78-2.73-2.69-1.66z" fill="#d0574f"/><path d="M80.58 23.24c-1.85 1.66-3.46 3.66-6.08 4.2-2.06-4-6.54-4.23-9.65-4.19-5.37.06-10.79.27-16.19.29-1.94 0-4-.83-5.78.63a1.24 1.24 0 01-1.76-.2c-3.12-2.97-6.41-.73-9.55-.07-1.57.32-1.7 1.84-.3 2.87a12.14 12.14 0 013.42 3.43 2.16 2.16 0 01.06 2.35c-.7 1.06-1.25.14-1.94-.23-1.24-.67-1.81 0-1.84 1.25-.16 5-2 9.56-2.94 14.37-1.09 5.92.74 12.26-2.61 17.82a.59.59 0 000 .48c.61 1.14 1.48 2.27.55 3.62-2 2.9 2.83.27 1.66 2-.66 1-2.33 1.23-2.45 2.78-.06.82.09 1.66 0 2.48-.18 2.69.42 5.89-.84 7.94s-.7 4.08-1.29 6c-.45 1.47 1 2.61 2.83 2.27.12 1.79 2.2 2.62 2.17 4.48-3.54-.87-7.28.59-10.77-.9-.63-.27-1 .18-1 .63-.2 2.31-.42 4.77.77 6.76.89 1.48 2.94 1 4.58 1.18 8.06 1 16.26.82 24.2 2.82 1 .24 1.43-.69 2.2-.91.6 3.53-.48 6.32-3.63 8.18-.63-1 .54-2.88-1.46-3.21q-5.79-.94-11.59-1.79c-1.29-.19-2 .34-2.58 1.65-2.69 5.68-4.1 11.78-6.15 17.67-.86 2.48.43 3.75 3.07 3.46A3.24 3.24 0 0028.6 131c2.28-5.26 5.36-10.23 5.79-16.14.1-1.38 1.08-1.51 2-1.82s1 .55 1.13 1.1c.5 1.6-1.18 3.73.18 4.66s2.26-2.38 4.26-1.5l.45.2c0 2.85-3.22 3-4.25 5-2.53.64-2.53.64-3.77 3.73-1.61 3.3-1 7.33-3.35 10.39-1.64-.54-2.71.35-4 1.24-2.23 1.52-4.87 1.13-7.15.18-2.87-1.19-2-4.51-3.11-6.77-.14-.28.3-.9.57-1.3 2.9-4.52 4.48-9.58 5.94-14.68.05-.15.09-.31.13-.48.33-1.74 2.93-3.4 1.68-4.76s-3.98-1.2-6.1-1.05a27.14 27.14 0 01-3.49-.12c-1.55-.12-2.65-1-2.44-2.54.43-3.35-.24-6.62-.33-9.92-.07-2.1.85-3.22 3.12-2.21a1.52 1.52 0 00.45.21c1.18.1 2.86 1.17 3.13-.89.2-1.48-.47-3.17-2.31-3.29-2.9-.19-5.82-.93-8.55 1.35-2.11 1.76-4.83 2.76-7.26 4.15-.48.28-1 .52-1.24 0a1.43 1.43 0 01.49-1.22c2-1.46 4.09-2.77 6.06-4.27 1.11-.84.87-1.69-.53-1.95s-2.63-.27-3.93-.5c-.86-.15-1.59-.64-1.5-1.66s.77-1.38 1.72-1.14c1.26.33 2.56-.16 3.87.55 3.41 1.86 7.71.37 11.07 2.84a1.87 1.87 0 002.55-.91 2.67 2.67 0 00.26-2.4c-.58-1-1.42-.38-2.12 0s-1.34.43-1.74-.21a1.25 1.25 0 01.45-1.75c4.4-1.89 3.67-6 4.44-9.59C23 64.77 24.68 56 25.77 47.12c.64-5.27.73-10.59 1.14-15.89.25-3.37 1.7-6.44 1.64-9.85 0-1.44 1.27-2.06 2.82-2.19a12.64 12.64 0 007.82-3.55c2.37-2.18 2.37-2.18 3.36 1a7.1 7.1 0 007.82 4.45c3.48-.78 6.85-.12 10.25-.38 1.88-.14 2.51-.75 2.57-2.71.08-2.25-.95-2.48-2.69-2.32-4.62.42-9.29-.49-13.89.36-1.28.23-2.29.28-2.85-1.14-.5-1.26-1-2.49.43-3.51 2.36-1.61 2.92-4.28 4-6.67.63-1.22-.05-3.37 1.91-3.72s4.12-1.42 6.31-.83c1.27.35 2.47 1 3.74 1.38 1.09.35 1.84.94 1.5 2.14-.93 3.31 1.25 4.94 3.4 6.51 2 1.45 3.78 2.77 2.14 5.59a5.85 5.85 0 00-.27 2c-.33 2 .41 3.13 2.5 3.47 3.73.57 7.44 1.3 11.16 1.98zM54.21 3.08c-1.52-.61-2.42 0-2.5 1.37-.1 1.57-.33 3.44 2 3.74.9.11 4.43-2.49 4.31-3.39-.31-2.51-2.77-.72-3.81-1.72zM33.44 30.51c.18-.68-.46-.71-.77-1-.3.33-.74.47-.78 1.08s.51.69.81 1c.3-.34.88-.46.74-1.08zM58.26 129.86c-1.39-2.75.91-3.27 2.54-4.19.85 1.54 1.72 3.07 2.54 4.63a6.2 6.2 0 01.38 1.31c.07-.5.14-1 .2-1.51.35-3-.9-5.72-1.87-8.46l1.37-.45c1.49.06 1.63 1.17 2.1 2.29 1.75 4.2 2.19 8.75 3.61 13.06 1.06 3.24 2.33 3.88 5.12 3.44a4.06 4.06 0 00.71 2.81c-7.32 1.72-11.66-1.41-13.07-9-.31-1.63-.22-4.68-3.63-3.93zM84.6 105.75a1.85 1.85 0 00.57-1.83c3.9.25 7.56 1.63 11.24 2.73 1.36.41 2.61 1.19 4.11 1 1.27-.18 1.72.63 2.17 1.54.21.43.64.8.34 1.31a1 1 0 01-1.24.42c-.31-.1-.61-.24-.91-.37-5.23-2.27-10.88-3.21-16.28-4.8zM107.14 55.27l-.37 1c-2.27-.19-4.6 0-6.79-.86-.57-.23-1.54-.26-1.29-1.09a1.58 1.58 0 012-1.09c2.13.62 4.31 1.35 6.45 2.04zM126.23 59.36c.9-.15 1-.77.86-1.51 1.32.08 2.65.08 4 .27a1.3 1.3 0 011.15 1.38c0 .89-.73 1.1-1.38.92-1.56-.42-3.42.66-4.63-1.06zM59.26 96.27c1.89.41 3.77-.14 5.72.12 1.64.22 2.94-2.13 5.21-2.15 1.5 0 1.88-1.9 1.88-3.53 0-3 .22-5.94.22-8.91 0-1.51 0-3 .95-4.25l2.75.12c2.17 1.24 2.23 3.21 2 5.39-.39 3.1-.7 6.22-1 9.34a3.82 3.82 0 002.07 4.16c.37 1.55-1.22 2.63-1 4.14-6.56-.65-13.14.17-19.7-.13a5.16 5.16 0 01.9-4.3z" fill="#515151"/><path d="M81.41 29.28v6c0 .81.23 1.69-.55 2.28-4.39 3.31-3.61 7.81-3.36 12.5.22 4.1-.32 8.28 0 12.43a2.53 2.53 0 01-3.26-2.14c-.44-2.06-.8-4.14-1.2-6.21.09-4.46 1.8-8.81 1-13.34.49-1.72.21-3.58 1-5.27a27.89 27.89 0 016.37-6.25zM55.64 108.13a21.42 21.42 0 006 .31h.25a.6.6 0 01.58.41c.68 1 1.69.49 2.57.52a.3.3 0 01.28.36c-1.38 1.46-4.1.66-5 3-4.73-.83-4.85-.75-5 3.94a15.43 15.43 0 00.29 3.39c.26 1.31-.53 2.14-1.13 3.08-.75 1.63-3 1.71-3.6 3.49-2.15-1.92-4.8-1.89-7.45-1.93-.32-2.33.87-3.2 3-3.15 0 2.19 1.42 2.36 3.06 2.06 1.37-.26 2.69-.77 2.29-2.54-.58-2.51.81-4.92.22-7.4 0-2.67.19-5.19 3.64-5.54zM70.18 110.21l1.14.68v.36c-.06.81-.27 1.72.48 2.28 3 2.21 3.83 5.59 5 8.81-2.91.46-3.39-2.2-4.34-3.81-.64-1.07-.77-2.66-2-3.23-3.46-1.64-1.99-3.3-.28-5.09zM39.54 94.9l9.63.71c0 .49.2 1.07 0 1.46-1.33 2.82-4.29 1.49-6.38 2a3.09 3.09 0 01-3.25-4.17zM79.52 132.39c2.19 2 2.38 4.41 1.32 7a18.39 18.39 0 01-2.2-3.07c-.64-1.38-1.29-3.04.88-3.93zM118.23 58.34c-2.39 1.19-4.66-.51-7-.3l1.07-1.6-.07.08h3.56a3.05 3.05 0 012.44 1.82zM79.12 103.73a1.45 1.45 0 01-.5-2c.77.51.49 1.27.5 2zM52.55 35.64c4.9.06 6.15.87 7.16 4.6.5 1.89.67 3.68-1.89 4.26a2.18 2.18 0 00-.79.59c-1.42 1.35-2.59 2.12-1.28 4.88a36.34 36.34 0 013.47 14.22 15.65 15.65 0 01.25 2.42 7.31 7.31 0 01-.9 2A9.45 9.45 0 0157.45 67c-.89-2-1.52-4-2.58-5.86-1.2-2-2-1.9-3.35 0-.53.78-.44 1.92-1.59 2.38-.73.28-1.33 1.19-2.19.69-.59-.35-.43-1.16-.48-1.82-.13-1.51.79-3.65-2.49-3-1.4.29-.85-1.6-.28-2.15 1.75-1.68 2.31-3.8 3.13-6 .72-1.88.12-2.59-1.21-2.88-2.07-.43-3.86-.74-4.15-3.39a5.86 5.86 0 012.59-6c2.4-1.47 4.3-4.28 7.7-3.33zm.86 16.14c-.11-.67-.24-1.47-.39-2.26s-.74-1-1.32-1.29c-.07.46-.19.92-.22 1.39 0 .81-.06 1.62 0 2.43s.21 1.37 1 1.32.71-.89.93-1.59zM43.28 74.43c-1.91 0-3.24.6-3.29 2.77 0 1.18-.75 1.38-1.66 1.06a1.2 1.2 0 01-.61-1.65 39.84 39.84 0 012-5.47c.56-1.13 1.59-2.42 3.11-1.8a5.86 5.86 0 005.63-.73c.3-.19.9.14 1.36.22a7.08 7.08 0 01-.4 1.33c-.5 1-1.64 1.06-2.39 1.65-1.24 1-3.27.86-3.89 2.71z" fill="#515151"/><path d="M43.18 74.52c.83.53 2.18-.17 2.66.83a2.89 2.89 0 002.5 1.65c-.75.29-1.51.59-2.27.87-1.46.55-2.11-.36-2.51-1.51a10.1 10.1 0 01-.28-1.92zM30.14 59.05a12.65 12.65 0 01-.38 1.69c-.2.53-.39 1.15-1.11 1.28a12.8 12.8 0 01-.15-1.84 3.24 3.24 0 01.5-1.33 5.49 5.49 0 01.86-.88z" fill="#515151"/><path d="M65 109.35c-.88 0-1.89.52-2.57-.52.96-.25 1.96-.76 2.57.52zM61.87 108.42h-.25c.03-.77.13-.61.25 0z" fill="#d0574f"/></svg>